<svg xmlns="http://www.w3.org/2000/svg" xmlns:xlink="http://www.w3.org/1999/xlink" viewBox="0,0,256,256" width="25px" height="25px" fill-rule="nonzero"><defs><linearGradient x1="32.5" y1="2" x2="32.5" y2="62" gradientUnits="userSpaceOnUse" id="color-1"><stop offset="0" stop-color="#ecc84e"></stop><stop offset="1" stop-color="#45c595"></stop></linearGradient><linearGradient x1="29.29" y1="23.719" x2="29.29" y2="47.836" gradientUnits="userSpaceOnUse" id="color-2"><stop offset="0" stop-color="#f7e7b3"></stop><stop offset="1" stop-color="#9be0c6"></stop></linearGradient></defs><g fill="none" fill-rule="nonzero" stroke="none" stroke-width="1" stroke-linecap="butt" stroke-linejoin="miter" stroke-miterlimit="10" stroke-dasharray="" stroke-dashoffset="0" font-family="none" font-weight="none" font-size="none" text-anchor="none" style="mix-blend-mode: normal"><g transform="scale(4,4)"><path d="M54.999,15.947c-0.024,-0.456 -0.354,-0.838 -0.803,-0.928l-5,-1c-0.064,-0.012 -0.131,-0.019 -0.196,-0.019h-5.333l-3.359,-8.062c-0.997,-2.392 -3.316,-3.938 -5.908,-3.938c-0.892,0 -1.741,0.184 -2.513,0.515c-0.772,-0.326 -1.611,-0.515 -2.487,-0.515c-3.529,0 -6.4,2.871 -6.4,6.4v5.6h-12c-0.533,0 -0.972,0.418 -0.999,0.95l-2,40c-0.025,0.509 0.336,0.955 0.839,1.037l37,6c0.054,0.009 0.106,0.013 0.16,0.013c0.204,0 0.404,-0.062 0.573,-0.181l10,-7c0.283,-0.198 0.443,-0.527 0.426,-0.872zM38.462,6.708l3.038,7.292h-2.834l-3.359,-8.062c-0.301,-0.722 -0.734,-1.355 -1.247,-1.904c0.115,-0.009 0.224,-0.034 0.34,-0.034c1.782,0 3.376,1.062 4.062,2.708zM31.903,4.784c0.677,0.469 1.227,1.126 1.559,1.924l3.038,7.292h-6.5v-5.6c0,-1.498 0.756,-2.821 1.903,-3.616zM25,8.4c0,-2.426 1.974,-4.4 4.4,-4.4c0.115,0 0.227,0.017 0.341,0.025c-1.076,1.146 -1.741,2.683 -1.741,4.375v5.6h-3zM45.759,59.948l-35.716,-5.792l1.908,-38.156h36.95l4.141,0.828l1.931,36.671z" fill="url(#color-1)"></path><path d="M25.942,23.719c-0.177,0 -0.356,-0.007 -0.533,0.11c-0.177,0.117 -0.239,0.301 -0.239,0.478v21.526c0,0.234 0.17,0.471 0.404,0.588l4.706,1.415h0.184c0.117,0 0.232,-0.051 0.349,-0.11c0.177,-0.117 0.239,-0.301 0.239,-0.478v-17.996c0.354,0.177 0.588,0.526 0.588,0.938v6.526c0,0.177 0.117,0.418 0.294,0.478c0.117,0.06 1,0.588 2.647,0.588c1.588,0 3.529,-0.878 3.529,-5.055c0,-3.353 -1.875,-5.894 -5.11,-6.893zM24.581,36.899l-6.526,2.353l-0.938,0.349c-1.588,0.648 -2.537,1.698 -2.537,2.757c0,2.236 1.588,3.529 4.412,3.529c1.53,0 3.412,-0.338 5.588,-1.103v-2.243c-0.528,0.177 -1.11,0.411 -1.581,0.588c-0.942,0.354 -1.654,0.478 -2.243,0.478c-0.882,0 -1.294,-0.301 -1.471,-0.478c-0.234,-0.177 -0.354,-0.404 -0.294,-0.699c0.06,-0.588 0.765,-1.128 2.059,-1.599c0.294,-0.117 2.293,-0.82 3.529,-1.232v-2.7zM36.052,38.37c-1.411,0.06 -2.881,0.287 -4.412,0.699v2.702c0.648,-0.234 1.521,-0.522 2.757,-0.993c2.824,-1 4.003,-0.889 4.357,-0.772c0.705,0.06 1.004,0.478 1.121,0.772c0.294,0.882 -0.816,1.287 -2.463,1.875c-0.765,0.294 -4.067,1.471 -5.772,2.059v2.721l9.118,-3.235l0.699,-0.294c1.176,-0.411 2.654,-1.183 2.537,-2.537c-0.06,-1.294 -1.641,-1.944 -2.757,-2.298c-1.648,-0.529 -3.42,-0.759 -5.185,-0.699z" fill="url(#color-2)"></path></g></g></svg>